<svg width="192" height="192" viewBox="0 0 192 192" xmlns="http://www.w3.org/2000/svg">
 <defs>
  <radialGradient id="radialGradient">
   <stop stop-color="#e9f" offset="0"/>
   <stop stop-color="#90c" offset="1"/>
  </radialGradient>
 </defs>
 <rect width="192" height="192" fill="url(#radialGradient)"/>
 <path d="m96 0 3.008 72.189 20.866-69.173-15.039 70.669 37.413-61.811-32.142 64.709 51.61-50.565-47.224 54.683 62.563-36.141-59.34 41.221 69.586-19.447-67.727 25.168 72.236-1.5307-71.858 7.5349 70.347 16.482-71.474-10.572 64.038 33.458-66.6-28.015 53.705 48.333-57.54-43.697 39.998 60.17-44.865-56.634 23.778 68.227-29.371-66.013 6.0634 71.997-12.032-71.243-12.032 71.243 6.0634-71.997-29.371 66.013 23.778-68.227-44.865 56.634 39.998-60.17-57.54 43.697 53.705-48.333-66.6 28.015 64.038-33.458-71.474 10.572 70.347-16.482-71.858-7.5349 72.236 1.5307-67.727-25.168 69.586 19.447-59.34-41.221 62.563 36.141-47.224-54.683 51.61 50.565-32.142-64.709 37.413 61.811-15.039-70.669 20.866 69.173z" fill="#fff" fill-opacity=".1"/>
 <rect x="54" y="156" width="84" height="12" fill="#ccc"/>
 <rect x="134" y="156" width="4" height="12" fill="#fff"/>
 <rect x="78" y="144" width="36" height="12" fill="#fc0"/>
 <rect x="110" y="144" width="4" height="12" fill="#fe9"/>
 <rect x="84" y="132" width="24" height="12" fill="#fc0"/>
 <rect x="104" y="132" width="4" height="12" fill="#fe9"/>
 <rect x="90" y="120" width="12" height="12" fill="#fc0"/>
 <rect x="98" y="120" width="4" height="12" fill="#fe9"/>
 <path d="m120 42v12h34.811c-1.5958 8.2993-4.8287 15.878-9.3633 21.949-6.7551 9.001-15.916 14.055-25.467 14.051l-4e-3 12c12.735 8e-3 24.95-6.3095 33.957-17.562 9.0068-11.253 14.067-26.519 14.066-42.438z" fill="#fc0"/>
 <path d="m71.976 42v12h-34.811c1.5958 8.2993 4.8287 15.878 9.3633 21.949 6.7551 9.001 15.916 14.055 25.467 14.051l4e-3 12c-12.735 8e-3 -24.95-6.3095-33.957-17.562-9.0068-11.253-14.067-26.519-14.066-42.438z" fill="#fc0"/>
 <path d="m48 24h96s0 102-48 102-48-102-48-102z" fill="#fc0"/>
 <path d="m126 24h18s0 102-48 102c31.878 0 30-102 30-102z" fill="#fe9"/>
 <path d="m69 69 24 24 42-42" fill="none" stroke="#fc0" stroke-width="8"/>
 <path d="m66 66 24 24 42-42" fill="none" stroke="#fff" stroke-width="8"/>
</svg>
